<svg id="Capa_1" enable-background="new 0 0 512 512" height="512" viewBox="0 0 512 512" width="512" xmlns="http://www.w3.org/2000/svg"><g><path d="m496 161h-73v-97c0-3.925-1.538-7.693-4.284-10.497l-48-49c-2.822-2.88-6.684-4.503-10.716-4.503h-256c-8.284 0-15 6.716-15 15v146h-73c-8.284 0-15 6.716-15 15v321c0 8.284 6.716 15 15 15s15-6.716 15-15v-178h82v97c0 8.284 6.716 15 15 15s15-6.716 15-15v-97h34v57c0 8.284 6.716 15 15 15s15-6.716 15-15v-57h34v97c0 8.284 6.716 15 15 15s15-6.716 15-15v-97h34v57c0 8.284 6.716 15 15 15s15-6.716 15-15v-57h34v97c0 8.284 6.716 15 15 15s15-6.716 15-15v-97h82v178c0 8.284 6.716 15 15 15s15-6.716 15-15v-321c0-8.284-6.716-15-15-15zm-377-131h234.696l39.304 40.123v90.877h-274zm-88 161h450v98h-450z"/><path d="m432 225h-80c-8.284 0-15 6.716-15 15s6.716 15 15 15h80c8.284 0 15-6.716 15-15s-6.716-15-15-15z"/><circle cx="80" cy="239.998" r="15"/><circle cx="144" cy="239.997" r="15"/></g></svg>